<svg width="56" height="56" viewBox="0 0 56 56" fill="none" xmlns="http://www.w3.org/2000/svg">
<g id="double-quotes-r 1" clip-path="url(#clip0_494_19883)">
<g id="Group">
<path id="Vector" d="M10.6939 40.415C8.29052 37.8623 7.00018 34.9993 7.00018 30.3583C7.00018 22.1917 12.7332 14.872 21.0702 11.253L23.1539 14.4683C15.3722 18.6777 13.8509 24.14 13.2442 27.584C14.4972 26.9353 16.1375 26.709 17.7452 26.8583C21.9545 27.248 25.2725 30.7037 25.2725 34.9993C25.2725 37.1653 24.4121 39.2425 22.8806 40.7741C21.349 42.3056 19.2718 43.166 17.1058 43.166C14.6022 43.166 12.2082 42.0227 10.6939 40.415ZM34.0272 40.415C31.6238 37.8623 30.3335 34.9993 30.3335 30.3583C30.3335 22.1917 36.0665 14.872 44.4035 11.253L46.4872 14.4683C38.7055 18.6777 37.1842 24.14 36.5775 27.584C37.8305 26.9353 39.4708 26.709 41.0785 26.8583C45.2878 27.248 48.6035 30.7037 48.6035 34.9993C48.6035 37.1653 47.7431 39.2425 46.2116 40.7741C44.68 42.3056 42.6028 43.166 40.4368 43.166C37.9332 43.166 35.5392 42.0227 34.0248 40.415H34.0272Z" fill="#FA8232"/>
</g>
</g>
<defs>
<clipPath id="clip0_494_19883">
<rect width="56" height="56" fill="white" transform="matrix(-1 0 0 -1 56 56)"/>
</clipPath>
</defs>
</svg>
