<svg width="40" height="40" viewBox="0 0 40 40" fill="none" xmlns="http://www.w3.org/2000/svg">
<rect width="40" height="40" rx="20" fill="#77878F"/>
<path d="M19.5574 15.5801L21.1042 14.0333C21.4234 13.7139 21.8023 13.4605 22.2195 13.2875C22.6366 13.1146 23.0837 13.0255 23.5353 13.0254C23.9868 13.0253 24.434 13.1141 24.8512 13.2869C25.2684 13.4597 25.6474 13.7129 25.9667 14.0322C26.286 14.3515 26.5393 14.7306 26.712 15.1478C26.8848 15.565 26.9737 16.0121 26.9736 16.4637C26.9734 16.9152 26.8844 17.3624 26.7114 17.7795C26.5385 18.1966 26.285 18.5756 25.9656 18.8947L23.7559 21.1044C23.4367 21.4236 23.0577 21.6768 22.6407 21.8496C22.2236 22.0223 21.7766 22.1112 21.3252 22.1112C20.8738 22.1112 20.4268 22.0223 20.0097 21.8496C19.5927 21.6768 19.2137 21.4236 18.8945 21.1044" stroke="white" stroke-width="1.2" stroke-linecap="round" stroke-linejoin="round"/>
<path d="M20.4415 24.4198L18.8947 25.9666C18.5756 26.286 18.1966 26.5394 17.7795 26.7124C17.3624 26.8853 16.9152 26.9744 16.4637 26.9745C16.0121 26.9746 15.565 26.8858 15.1478 26.713C14.7306 26.5402 14.3515 26.287 14.0322 25.9677C13.7129 25.6484 13.4597 25.2693 13.2869 24.8521C13.1141 24.4349 13.0253 23.9878 13.0254 23.5362C13.0255 23.0847 13.1146 22.6376 13.2875 22.2204C13.4605 21.8033 13.7139 21.4243 14.0333 21.1052L16.2431 18.8955C16.5623 18.5763 16.9412 18.3231 17.3583 18.1503C17.7753 17.9776 18.2223 17.8887 18.6737 17.8887C19.1252 17.8887 19.5721 17.9776 19.9892 18.1503C20.4063 18.3231 20.7852 18.5763 21.1044 18.8955" stroke="white" stroke-width="1.2" stroke-linecap="round" stroke-linejoin="round"/>
</svg>
