<svg width="40" height="40" viewBox="0 0 40 40" fill="none" xmlns="http://www.w3.org/2000/svg">
<rect width="40" height="40" rx="20" fill="#0077B5"/>
<g clip-path="url(#clip0_494_19793)">
<path d="M27.9968 27.9995V27.9988H28.0008V22.1308C28.0008 19.2602 27.3828 17.0488 24.0268 17.0488C22.4135 17.0488 21.3308 17.9342 20.8888 18.7735H20.8422V17.3168H17.6602V27.9988H20.9735V22.7095C20.9735 21.3168 21.2375 19.9702 22.9622 19.9702C24.6615 19.9702 24.6868 21.5595 24.6868 22.7988V27.9995H27.9968Z" fill="white"/>
<path d="M12.2637 17.3184H15.581V28.0004H12.2637V17.3184Z" fill="white"/>
<path d="M13.9213 12C12.8607 12 12 12.8607 12 13.9213C12 14.982 12.8607 15.8607 13.9213 15.8607C14.982 15.8607 15.8427 14.982 15.8427 13.9213C15.842 12.8607 14.9813 12 13.9213 12V12Z" fill="white"/>
</g>
<defs>
<clipPath id="clip0_494_19793">
<rect width="16" height="16" fill="white" transform="translate(12 12)"/>
</clipPath>
</defs>
</svg>
