<svg width="40" height="40" viewBox="0 0 40 40" fill="none" xmlns="http://www.w3.org/2000/svg">
<g clip-path="url(#clip0_2874_9455)">
<path d="M39.2118 35.0794V35.1591H39.2864C39.3004 35.1594 39.3142 35.1559 39.3264 35.149C39.3313 35.1455 39.3352 35.141 39.3378 35.1356C39.3404 35.1303 39.3417 35.1244 39.3414 35.1185C39.3417 35.1127 39.3404 35.1069 39.3378 35.1017C39.3352 35.0965 39.3312 35.0921 39.3264 35.0888C39.3144 35.0816 39.3005 35.0781 39.2864 35.0786H39.2118V35.0794ZM39.2872 35.0231C39.3192 35.0211 39.3509 35.0303 39.3768 35.049C39.3872 35.0575 39.3955 35.0683 39.4009 35.0805C39.4064 35.0928 39.4089 35.1061 39.4082 35.1195C39.4087 35.131 39.4067 35.1425 39.4023 35.1532C39.398 35.1639 39.3914 35.1735 39.383 35.1814C39.363 35.1988 39.3379 35.2092 39.3114 35.2111L39.4114 35.3247H39.3344L39.2424 35.2119H39.2126V35.3247H39.1482V35.0233H39.2882L39.2872 35.0231ZM39.2672 35.4287C39.301 35.429 39.3344 35.4222 39.3654 35.4088C39.3953 35.396 39.4224 35.3776 39.4454 35.3548C39.4685 35.3319 39.4869 35.3049 39.4996 35.2751C39.5259 35.2119 39.5259 35.141 39.4996 35.0778C39.4867 35.0482 39.4683 35.0211 39.4454 34.9982C39.4224 34.9753 39.3953 34.957 39.3654 34.9442C39.3343 34.9314 39.3009 34.9251 39.2672 34.9254C39.233 34.9251 39.199 34.9315 39.1672 34.9442C39.1367 34.9567 39.1089 34.9751 39.0854 34.9982C39.05 35.0343 39.0261 35.08 39.0166 35.1296C39.0071 35.1792 39.0125 35.2305 39.032 35.2771C39.0442 35.307 39.0624 35.3341 39.0854 35.3568C39.1089 35.3798 39.1367 35.3982 39.1672 35.4108C39.1988 35.4242 39.2329 35.431 39.2672 35.4307V35.4287ZM39.2672 34.8529C39.3551 34.8528 39.4395 34.8872 39.5022 34.9485C39.5324 34.978 39.5565 35.0132 39.573 35.052C39.5901 35.0918 39.5989 35.1346 39.5989 35.178C39.5989 35.2213 39.5901 35.2641 39.573 35.304C39.5561 35.3426 39.5321 35.3776 39.5022 35.4074C39.4715 35.4367 39.4358 35.4603 39.3968 35.4771C39.3558 35.4944 39.3117 35.5033 39.2672 35.503C39.2222 35.5033 39.1775 35.4945 39.136 35.4771C39.0965 35.4607 39.0605 35.437 39.0298 35.4074C38.9999 35.3765 38.9762 35.3403 38.96 35.3006C38.9429 35.2608 38.9341 35.2179 38.9341 35.1746C38.9341 35.1313 38.9429 35.0884 38.96 35.0486C38.9765 35.0098 39.0006 34.9746 39.0308 34.9452C39.0611 34.915 39.0972 34.8913 39.137 34.8754C39.1785 34.858 39.2232 34.8492 39.2682 34.8495L39.2672 34.8529ZM8.64323 33.6888C8.64323 33.114 9.02123 32.6419 9.63903 32.6419C10.2294 32.6419 10.6278 33.0937 10.6278 33.6888C10.6278 34.2839 10.2294 34.7358 9.63903 34.7358C9.02123 34.7358 8.64323 34.2636 8.64323 33.6888ZM11.3008 33.6888V32.0532H10.587V32.4516C10.3606 32.1572 10.0172 31.9725 9.55023 31.9725C8.63023 31.9725 7.90823 32.6913 7.90823 33.6896C7.90823 34.688 8.62983 35.4068 9.55023 35.4068C10.017 35.4068 10.3606 35.2219 10.587 34.9276V35.3247H11.3V33.6888H11.3008ZM35.4192 33.6888C35.4192 33.114 35.7972 32.6419 36.4152 32.6419C37.0062 32.6419 37.404 33.0937 37.404 33.6888C37.404 34.2839 37.0062 34.7358 36.4152 34.7358C35.7974 34.7358 35.4192 34.2636 35.4192 33.6888ZM38.0776 33.6888V30.7402H37.3632V32.4516C37.1368 32.1572 36.7934 31.9725 36.3264 31.9725C35.4064 31.9725 34.6844 32.6913 34.6844 33.6896C34.6844 34.688 35.406 35.4068 36.3264 35.4068C36.7934 35.4068 37.1368 35.2219 37.3632 34.9276V35.3247H38.0776V33.6888ZM20.16 32.6082C20.62 32.6082 20.9154 32.8955 20.9908 33.4013H19.2876C19.3638 32.9292 19.6516 32.6082 20.1602 32.6082H20.16ZM20.1744 31.9707C19.2124 31.9707 18.5394 32.668 18.5394 33.6878C18.5394 34.7276 19.2394 35.405 20.2222 35.405C20.7166 35.405 21.1694 35.2821 21.5678 34.9468L21.218 34.4198C20.9428 34.6389 20.5924 34.7619 20.263 34.7619C19.803 34.7619 19.3842 34.5497 19.2812 33.961H21.7186C21.7256 33.8725 21.7328 33.7833 21.7328 33.6876C21.7256 32.6682 21.0928 31.9705 20.174 31.9705L20.1744 31.9707ZM28.792 33.6876C28.792 33.1129 29.17 32.6407 29.7878 32.6407C30.3782 32.6407 30.7766 33.0925 30.7766 33.6876C30.7766 34.2827 30.3782 34.7346 29.7878 34.7346C29.17 34.7346 28.7918 34.2624 28.7918 33.6876H28.792ZM31.4494 33.6876V32.0532H30.736V32.4516C30.5088 32.1572 30.1662 31.9725 29.6992 31.9725C28.7792 31.9725 28.0572 32.6913 28.0572 33.6896C28.0572 34.688 28.7788 35.4068 29.6992 35.4068C30.1662 35.4068 30.5088 35.2219 30.736 34.9276V35.3247H31.4496V33.6888L31.4494 33.6876ZM24.761 33.6876C24.761 34.6796 25.4542 35.4048 26.5122 35.4048C27.0066 35.4048 27.336 35.2952 27.6922 35.0149L27.3494 34.4401C27.0814 34.632 26.8 34.7346 26.4894 34.7346C25.9196 34.7276 25.5006 34.3172 25.5006 33.6876C25.5006 33.0581 25.9196 32.6479 26.4894 32.6407C26.7992 32.6407 27.0806 32.7433 27.3494 32.9351L27.6922 32.3604C27.3354 32.0801 27.006 31.9705 26.5122 31.9705C25.4542 31.9705 24.761 32.6955 24.761 33.6876ZM33.963 31.9705C33.5512 31.9705 33.283 32.1623 33.0976 32.4496V32.0532H32.3902V35.3229H33.1048V33.49C33.1048 32.9489 33.3382 32.6483 33.8048 32.6483C33.9576 32.6461 34.1093 32.674 34.2512 32.7305L34.4712 32.0603C34.3132 31.9984 34.1072 31.9711 33.9626 31.9711L33.963 31.9705ZM14.8298 32.3131C14.4864 32.0876 14.0132 31.9711 13.4912 31.9711C12.6596 31.9711 12.1242 32.3681 12.1242 33.0178C12.1242 33.551 12.5228 33.8799 13.2568 33.9825L13.594 34.0303C13.9854 34.0851 14.1702 34.1877 14.1702 34.3724C14.1702 34.6252 13.9102 34.7694 13.422 34.7694C12.9276 34.7694 12.5708 34.6121 12.3302 34.4274L11.9948 34.9818C12.3862 35.2691 12.8806 35.4062 13.416 35.4062C14.364 35.4062 14.9134 34.9615 14.9134 34.3389C14.9134 33.7641 14.481 33.4635 13.7666 33.3609L13.4302 33.3123C13.1212 33.2724 12.8736 33.2105 12.8736 32.9913C12.8736 32.7522 13.107 32.6084 13.4986 32.6084C13.9176 32.6084 14.3232 32.7658 14.522 32.8887L14.831 32.3139L14.8298 32.3131ZM24.04 31.9717C23.6282 31.9717 23.36 32.1635 23.1754 32.4508V32.0532H22.468V35.3229H23.1818V33.49C23.1818 32.9489 23.4152 32.6483 23.8818 32.6483C24.0346 32.6461 24.1863 32.674 24.3282 32.7305L24.5482 32.0603C24.3902 31.9984 24.1842 31.9711 24.0396 31.9711L24.04 31.9717ZM17.9488 32.0532H16.7816V31.0612H16.06V32.0532H15.3942V32.703H16.06V34.1947C16.06 34.9533 16.3556 35.4052 17.2 35.4052C17.5098 35.4052 17.8666 35.3096 18.093 35.1524L17.8868 34.5435C17.6738 34.6664 17.4404 34.7284 17.2548 34.7284C16.898 34.7284 16.7816 34.5093 16.7816 34.1811V32.7036H17.9488V32.0532ZM7.27703 35.3237V33.2716C7.27703 32.4988 6.78263 31.9788 5.98563 31.9719C5.56663 31.9649 5.13443 32.0948 4.83183 32.5536C4.60543 32.191 4.24863 31.9719 3.74703 31.9719C3.39643 31.9719 3.05383 32.0745 2.78563 32.4574V32.0532H2.07123V35.3229H2.79123V33.5099C2.79123 32.9423 3.10723 32.6407 3.59523 32.6407C4.06923 32.6407 4.30903 32.9485 4.30903 33.5027V35.3225H5.03063V33.5095C5.03063 32.9419 5.36003 32.6403 5.83383 32.6403C6.32123 32.6403 6.55383 32.9481 6.55383 33.5023V35.3221L7.27703 35.3237Z" fill="white"/>
<path d="M39.6188 24.4469V23.9688H39.4938L39.3492 24.2969L39.2054 23.9688H39.08V24.4469H39.1688V24.0867L39.304 24.3975H39.396L39.5312 24.0859V24.4469H39.6192H39.6188ZM38.8258 24.4469V24.0506H38.9858V23.9699H38.577V24.0506H38.737V24.4469H38.825H38.8258Z" fill="white"/>
<path d="M25.4114 26.4978H14.5942V7.13281H25.4116L25.4114 26.4978Z" fill="white" fill-opacity="0.7"/>
<path d="M15.28 16.8157C15.28 12.8875 17.1264 9.38829 20.0016 7.13322C17.8252 5.42373 15.1334 4.49593 12.3618 4.50001C5.5344 4.50001 0 10.0139 0 16.8157C0 23.6176 5.5344 29.1314 12.3618 29.1314C15.1334 29.1356 17.8254 28.2078 20.0018 26.4982C17.1268 24.2436 15.28 20.7441 15.28 16.8157Z" fill="white"/>
<path d="M40.005 16.8157C40.005 23.6176 34.4706 29.1315 27.6432 29.1315C24.8713 29.1355 22.179 28.2077 20.0022 26.4982C22.8782 24.2432 24.7246 20.7441 24.7246 16.8157C24.7246 12.8873 22.8782 9.38829 20.0022 7.13322C22.179 5.42378 24.8711 4.49601 27.643 4.50001C34.4704 4.50001 40.0048 10.0139 40.0048 16.8157" fill="white"/>
</g>
<defs>
<clipPath id="clip0_2874_9455">
<rect width="40" height="40" fill="white"/>
</clipPath>
</defs>
</svg>
