<svg width="40" height="40" viewBox="0 0 40 40" fill="none" xmlns="http://www.w3.org/2000/svg">
<rect width="40" height="40" rx="20" fill="#CB2027"/>
<g clip-path="url(#clip0_494_19794)">
<path d="M20.2173 12C15.8313 12.0007 13.5 14.8107 13.5 17.8747C13.5 19.2953 14.294 21.068 15.5653 21.63C15.928 21.7933 15.88 21.594 16.192 20.4007C16.2167 20.3013 16.204 20.2153 16.124 20.1227C14.3067 18.0207 15.7693 13.6993 19.958 13.6993C26.02 13.6993 24.8873 22.0873 21.0127 22.0873C20.014 22.0873 19.27 21.3033 19.5053 20.3333C19.7907 19.178 20.3493 17.936 20.3493 17.1033C20.3493 15.0047 17.2227 15.316 17.2227 18.0967C17.2227 18.956 17.5267 19.536 17.5267 19.536C17.5267 19.536 16.5207 23.6 16.334 24.3593C16.018 25.6447 16.3767 27.7253 16.408 27.9047C16.4273 28.0033 16.538 28.0347 16.6 27.9533C16.6993 27.8233 17.9153 26.0887 18.256 24.8347C18.38 24.378 18.8887 22.5247 18.8887 22.5247C19.224 23.13 20.1907 23.6367 21.2207 23.6367C24.2847 23.6367 26.4993 20.9433 26.4993 17.6013C26.4887 14.3973 23.7467 12 20.2173 12V12Z" fill="white"/>
</g>
<defs>
<clipPath id="clip0_494_19794">
<rect width="16" height="16" fill="white" transform="translate(12 12)"/>
</clipPath>
</defs>
</svg>
