<svg width="40" height="40" viewBox="0 0 40 40" fill="none" xmlns="http://www.w3.org/2000/svg">
<rect width="40" height="40" rx="20" fill="#1DA1F2"/>
<path d="M17.0038 26.4016C23.0081 26.4016 26.2917 21.4558 26.2917 17.1669C26.2917 17.0265 26.2888 16.8866 26.2824 16.7474C26.9214 16.2877 27.4728 15.7186 27.9108 15.0667C27.3259 15.3253 26.6965 15.4993 26.0362 15.5777C26.7101 15.1759 27.2275 14.5403 27.4716 13.7825C26.8308 14.1605 26.1298 14.4269 25.3988 14.5704C24.8031 13.9395 23.955 13.5449 23.016 13.5449C21.2133 13.5449 19.7514 14.9984 19.7514 16.7901C19.7514 17.0448 19.7801 17.2925 19.8361 17.5302C17.123 17.3944 14.7173 16.1029 13.1072 14.1391C12.8172 14.6344 12.6647 15.1973 12.6652 15.7704C12.6652 16.8965 13.2415 17.8905 14.1179 18.4721C13.5995 18.4563 13.0925 18.3171 12.6395 18.0661C12.639 18.0798 12.639 18.093 12.639 18.1076C12.639 19.6794 13.7642 20.9918 15.2579 21.2892C14.9773 21.3651 14.6879 21.4036 14.3971 21.4034C14.1871 21.4034 13.9825 21.3828 13.7836 21.3449C14.1992 22.6345 15.4043 23.5729 16.833 23.5991C15.7157 24.4698 14.3083 24.9884 12.7787 24.9884C12.5184 24.9887 12.2584 24.9736 12 24.9435C13.4447 25.8642 15.1602 26.4014 17.0039 26.4014" fill="white"/>
</svg>
