<svg width="40" height="14" viewBox="0 0 40 14" fill="none" xmlns="http://www.w3.org/2000/svg">
<path d="M17.3403 13.2704H14.0764L16.1163 0.733777H19.3805L17.3403 13.2704ZM11.3306 0.733777L8.21888 9.35654L7.85067 7.49973L7.851 7.5004L6.75274 1.86255C6.75274 1.86255 6.61995 0.733777 5.20445 0.733777H0.0602403L-0.00012207 0.946051C-0.00012207 0.946051 1.57299 1.27335 3.41404 2.37899L6.24972 13.2707H9.65047L14.8433 0.733777H11.3306ZM37.003 13.2704H40L37.387 0.733442H34.7632C33.5516 0.733442 33.2565 1.66772 33.2565 1.66772L28.3886 13.2704H31.791L32.4714 11.4082H36.6207L37.003 13.2704ZM33.4114 8.83575L35.1264 4.14425L36.0912 8.83575H33.4114ZM28.6438 3.74854L29.1096 1.05638C29.1096 1.05638 27.6723 0.509766 26.174 0.509766C24.5543 0.509766 20.7078 1.21768 20.7078 4.66001C20.7078 7.89879 25.2223 7.93903 25.2223 9.64025C25.2223 11.3415 21.173 11.0366 19.8366 9.96386L19.3514 12.7788C19.3514 12.7788 20.8088 13.4867 23.0355 13.4867C25.2628 13.4867 28.623 12.3334 28.623 9.19457C28.623 5.935 24.068 5.63151 24.068 4.21434C24.0683 2.79683 27.2471 2.97892 28.6438 3.74854Z" fill="white"/>
<path d="M7.85104 7.50295L6.75278 1.8651C6.75278 1.8651 6.61998 0.736328 5.20448 0.736328H0.0602407L-0.00012207 0.948602C-0.00012207 0.948602 2.4724 1.46101 4.84398 3.38087C7.1116 5.21589 7.85104 7.50295 7.85104 7.50295Z" fill="white"/>
</svg>
