<svg width="40" height="40" viewBox="0 0 40 40" fill="none" xmlns="http://www.w3.org/2000/svg">
<rect width="40" height="40" rx="20" fill="#25D366"/>
<g clip-path="url(#clip0_494_19790)">
<path fill-rule="evenodd" clip-rule="evenodd" d="M25.3059 14.6721C23.9026 13.2671 22.0363 12.493 20.0481 12.4922C15.9511 12.4922 12.6167 15.8264 12.6151 19.9245C12.6145 21.2346 12.9568 22.5134 13.6072 23.6406L12.5527 27.4922L16.4931 26.4586C17.5788 27.0508 18.8011 27.3629 20.045 27.3633H20.0482C24.1447 27.3633 27.4794 24.0287 27.481 19.9305C27.4818 17.9443 26.7093 16.0769 25.3059 14.6721ZM20.0481 26.108H20.0455C18.937 26.1075 17.8498 25.8096 16.9011 25.2469L16.6756 25.1129L14.3374 25.7263L14.9615 23.4466L14.8145 23.2128C14.1961 22.2292 13.8695 21.0923 13.8701 19.925C13.8714 16.5188 16.6429 13.7476 20.0505 13.7476C21.7007 13.7481 23.2519 14.3915 24.4182 15.5593C25.5846 16.7271 26.2266 18.2792 26.226 19.93C26.2246 23.3365 23.4533 26.108 20.0481 26.108ZM23.4368 21.481C23.2511 21.388 22.338 20.9388 22.1677 20.8768C21.9976 20.8148 21.8736 20.7839 21.7499 20.9698C21.6261 21.1556 21.2702 21.574 21.1618 21.6979C21.0534 21.8219 20.9452 21.8374 20.7594 21.7444C20.5737 21.6515 19.9753 21.4553 19.2658 20.8226C18.7138 20.3301 18.3411 19.7219 18.2327 19.5361C18.1245 19.35 18.2318 19.2592 18.3141 19.157C18.5152 18.9074 18.7165 18.6456 18.7784 18.5218C18.8404 18.3978 18.8094 18.2893 18.7628 18.1964C18.7165 18.1035 18.3451 17.1893 18.1904 16.8173C18.0395 16.4553 17.8865 16.5042 17.7724 16.4985C17.6642 16.4931 17.5403 16.492 17.4165 16.492C17.2927 16.492 17.0915 16.5385 16.9212 16.7245C16.751 16.9104 16.2712 17.3597 16.2712 18.2738C16.2712 19.188 16.9367 20.0711 17.0296 20.1951C17.1224 20.319 18.3392 22.1949 20.2022 22.9993C20.6454 23.1909 20.9912 23.305 21.261 23.3906C21.706 23.532 22.1107 23.512 22.4308 23.4642C22.7877 23.4109 23.5295 23.0149 23.6844 22.5811C23.8392 22.1472 23.8392 21.7754 23.7927 21.6979C23.7463 21.6205 23.6225 21.574 23.4368 21.481Z" fill="white"/>
</g>
<defs>
<clipPath id="clip0_494_19790">
<rect width="16" height="16" fill="white" transform="translate(12 12)"/>
</clipPath>
</defs>
</svg>
